<mxfile host="app.diagrams.net" modified="2023-07-04T10:59:36.070Z" agent="Mozilla/5.0 (Macintosh; Intel Mac OS X 10_15_7) AppleWebKit/605.1.15 (KHTML, like Gecko) Version/16.2 Safari/605.1.15" version="21.5.2" etag="Vk9wU0iJdpANXFaFh0UP" type="github">
  <diagram name="Sivu-1" id="R5k4vfgWmNBsVcOswaHL">
    <mxGraphModel>
      <root>
        <mxCell id="0" />
        <mxCell id="1" parent="0" />
      </root>
    </mxGraphModel>
  </diagram>
</mxfile>
